<svg xmlns="http://www.w3.org/2000/svg" viewBox="-2 -2 344 222">
  <defs>
    <linearGradient id="g" x1="0" y1="0" x2="339" y2="0" gradientUnits="userSpaceOnUse">
      <stop offset="0%"   stop-color="#1A6CD2"/>
      <stop offset="18%"  stop-color="#1D78D3"/>
      <stop offset="35%"  stop-color="#1F99DA"/>
      <stop offset="53%"  stop-color="#28B7F3"/>
      <stop offset="65%"  stop-color="#64C494"/>
      <stop offset="83%"  stop-color="#B7DD25"/>
      <stop offset="100%" stop-color="#B5E632"/>
    </linearGradient>
  </defs>
  <path fill="url(#g)" fill-rule="evenodd"
    d="M 338.0,216.7 L 313.0,216.6 L 298.0,210.3 L 242.0,152.9 L 230.9,150.0 L 229.1,145.0 L 232.1,139.0 L 229.0,129.2 L 216.0,127.4 L 199.0,109.8 L 186.0,109.6 L 185.7,204.0 L 165.0,216.5 L 161.2,216.0 L 161.3,61.0 L 185.6,61.0 L 186.0,101.5 L 199.0,101.2 L 218.0,83.2 L 229.0,82.5 L 231.4,74.0 L 227.4,66.0 L 232.0,60.4 L 239.0,61.2 L 241.7,65.0 L 241.5,70.0 L 234.4,75.0 L 231.0,85.6 L 219.3,86.0 L 213.0,91.5 L 214.0,93.1 L 222.0,88.5 L 231.0,87.4 L 236.0,88.4 L 243.0,93.8 L 262.2,82.0 L 266.0,72.5 L 272.0,71.4 L 275.8,74.0 L 277.1,79.0 L 275.0,83.5 L 270.0,85.6 L 264.0,83.9 L 245.9,97.0 L 248.0,103.1 L 272.0,103.2 L 278.0,98.3 L 284.8,101.0 L 284.9,109.0 L 279.0,112.4 L 271.1,107.0 L 248.0,107.3 L 245.2,115.0 L 254.0,121.2 L 261.0,120.4 L 265.7,124.0 L 266.5,129.0 L 263.0,133.6 L 255.0,133.0 L 252.4,129.0 L 252.8,124.0 L 243.0,117.5 L 231.0,123.3 L 222.0,122.6 L 216.0,118.0 L 213.5,120.0 L 219.5,126.0 L 231.0,126.4 L 234.9,138.0 L 240.0,139.4 L 243.9,146.0 L 246.2,146.0 L 268.0,143.1 L 288.3,135.0 L 299.0,126.5 L 307.0,115.0 L 311.1,96.0 L 308.0,76.1 L 300.0,62.6 L 285.2,52.0 L 265.0,48.6 L 90.0,48.4 L 91.2,43.0 L 99.0,34.1 L 116.0,24.7 L 167.4,23.0 L 146.0,17.0 L 132.0,15.9 L 119.0,16.9 L 103.0,22.8 L 92.0,30.8 L 84.0,40.9 L 78.0,61.0 L 51.0,59.0 L 33.0,68.0 L 25.0,82.9 L 25.0,93.0 L 147.0,94.3 L 148.8,96.0 L 147.5,102.0 L 139.0,111.8 L 129.0,115.8 L 54.0,116.2 L 53.6,192.0 L 49.0,197.8 L 26.0,212.4 L 24.3,211.0 L 24.3,122.0 L 11.0,114.7 L 2.5,103.0 L 0.1,88.0 L 2.7,73.0 L 10.4,60.0 L 25.0,47.5 L 44.0,40.3 L 61.0,39.1 L 69.5,24.0 L 84.0,10.5 L 100.0,2.7 L 113.0,-0.4 L 131.0,-0.5 L 149.0,4.4 L 160.0,10.3 L 170.5,23.0 L 276.0,23.3 L 300.0,28.7 L 321.0,42.8 L 332.4,59.0 L 338.7,80.0 L 338.6,108.0 L 333.3,125.0 L 324.0,138.6 L 311.0,149.4 L 287.8,159.0 L 338.4,214.0 L 338.0,216.7 Z M 211.3,118.0 L 213.3,116.0 L 211.4,113.0 L 209.0,106.8 L 191.7,107.0 L 201.0,107.4 L 210.0,117.5 L 211.3,118.0 Z M 209.7,103.0 L 213.1,95.0 L 211.0,93.7 L 201.6,103.0 L 202.0,103.9 L 209.7,103.0 Z"/>
</svg>